<svg xmlns="http://www.w3.org/2000/svg" width="1500" height="2000" viewBox="0 0 1500 2000"><rect x="0" y="0" width="1500" height="2000" fill="#F6F7F5"/><text x="54" y="146" fill="#161817" font-family="Lato" font-size="86" font-weight="900" text-anchor="start" letter-spacing="-1.0" opacity="1">How FlavourBench scores one answer</text><text x="56" y="218" fill="#68706C" font-family="Lato" font-size="40" font-weight="500" text-anchor="start" letter-spacing="0" opacity="1">The model picks 3 of 8 ingredients. Epicure has already scored all 56 combinations.</text><text x="56" y="338" fill="#68706C" font-family="Lato" font-size="30" font-weight="800" text-anchor="start" letter-spacing="1.2" opacity="1">CULINARY TASK</text><circle cx="84" cy="410" r="28" fill="#161817" stroke="none" stroke-width="1"/><text x="84" y="421" fill="#F6F7F5" font-family="DejaVu Sans Mono" font-size="27" font-weight="700" text-anchor="middle" letter-spacing="0" opacity="1">A</text><text x="132" y="421" fill="#161817" font-family="Lato" font-size="32" font-weight="700" text-anchor="start" letter-spacing="0" opacity="1">caciocavallo</text><circle cx="804" cy="410" r="28" fill="#161817" stroke="none" stroke-width="1"/><text x="804" y="421" fill="#F6F7F5" font-family="DejaVu Sans Mono" font-size="27" font-weight="700" text-anchor="middle" letter-spacing="0" opacity="1">B</text><text x="852" y="421" fill="#161817" font-family="Lato" font-size="32" font-weight="700" text-anchor="start" letter-spacing="0" opacity="1">fromage blanc</text><circle cx="84" cy="486" r="28" fill="#161817" stroke="none" stroke-width="1"/><text x="84" y="497" fill="#F6F7F5" font-family="DejaVu Sans Mono" font-size="27" font-weight="700" text-anchor="middle" letter-spacing="0" opacity="1">C</text><text x="132" y="497" fill="#161817" font-family="Lato" font-size="32" font-weight="700" text-anchor="start" letter-spacing="0" opacity="1">quail egg</text><circle cx="804" cy="486" r="28" fill="#161817" stroke="none" stroke-width="1"/><text x="804" y="497" fill="#F6F7F5" font-family="DejaVu Sans Mono" font-size="27" font-weight="700" text-anchor="middle" letter-spacing="0" opacity="1">D</text><text x="852" y="497" fill="#161817" font-family="Lato" font-size="32" font-weight="700" text-anchor="start" letter-spacing="0" opacity="1">egg white</text><circle cx="84" cy="562" r="28" fill="#161817" stroke="none" stroke-width="1"/><text x="84" y="573" fill="#F6F7F5" font-family="DejaVu Sans Mono" font-size="27" font-weight="700" text-anchor="middle" letter-spacing="0" opacity="1">E</text><text x="132" y="573" fill="#161817" font-family="Lato" font-size="32" font-weight="700" text-anchor="start" letter-spacing="0" opacity="1">whipped topping</text><circle cx="804" cy="562" r="28" fill="#161817" stroke="none" stroke-width="1"/><text x="804" y="573" fill="#F6F7F5" font-family="DejaVu Sans Mono" font-size="27" font-weight="700" text-anchor="middle" letter-spacing="0" opacity="1">F</text><text x="852" y="573" fill="#161817" font-family="Lato" font-size="32" font-weight="700" text-anchor="start" letter-spacing="0" opacity="1">goose egg</text><circle cx="84" cy="638" r="28" fill="#161817" stroke="none" stroke-width="1"/><text x="84" y="649" fill="#F6F7F5" font-family="DejaVu Sans Mono" font-size="27" font-weight="700" text-anchor="middle" letter-spacing="0" opacity="1">G</text><text x="132" y="649" fill="#161817" font-family="Lato" font-size="32" font-weight="700" text-anchor="start" letter-spacing="0" opacity="1">goat milk</text><circle cx="804" cy="638" r="28" fill="#161817" stroke="none" stroke-width="1"/><text x="804" y="649" fill="#F6F7F5" font-family="DejaVu Sans Mono" font-size="27" font-weight="700" text-anchor="middle" letter-spacing="0" opacity="1">H</text><text x="852" y="649" fill="#161817" font-family="Lato" font-size="32" font-weight="700" text-anchor="start" letter-spacing="0" opacity="1">grana padano</text><polyline points="750,690 750,728 350,728 350,790" fill="none" stroke="#56605B" stroke-width="3"/><polygon points="338,778 362,778 350,790" fill="#56605B"/><polyline points="750,728 1150,728 1150,790" fill="none" stroke="#56605B" stroke-width="3"/><polygon points="1138,778 1162,778 1150,790" fill="#56605B"/><rect x="70" y="805" width="560" height="420" fill="none" stroke="#DDE1DE" stroke-width="2"/><text x="106" y="864" fill="#68706C" font-family="Lato" font-size="30" font-weight="800" text-anchor="start" letter-spacing="1.2" opacity="1">MODEL</text><text x="106" y="936" fill="#161817" font-family="Lato" font-size="50" font-weight="900" text-anchor="start" letter-spacing="0" opacity="1">selects 3 of 8</text><circle cx="154" cy="1048" r="46" fill="#161817" stroke="none" stroke-width="1"/><text x="154" y="1065" fill="#F6F7F5" font-family="DejaVu Sans Mono" font-size="42" font-weight="700" text-anchor="middle" letter-spacing="0" opacity="1">A</text><text x="225" y="1064" fill="#68706C" font-family="DejaVu Sans Mono" font-size="44" font-weight="400" text-anchor="middle" letter-spacing="0" opacity="1">+</text><circle cx="296" cy="1048" r="46" fill="#161817" stroke="none" stroke-width="1"/><text x="296" y="1065" fill="#F6F7F5" font-family="DejaVu Sans Mono" font-size="42" font-weight="700" text-anchor="middle" letter-spacing="0" opacity="1">B</text><text x="367" y="1064" fill="#68706C" font-family="DejaVu Sans Mono" font-size="44" font-weight="400" text-anchor="middle" letter-spacing="0" opacity="1">+</text><circle cx="438" cy="1048" r="46" fill="#161817" stroke="none" stroke-width="1"/><text x="438" y="1065" fill="#F6F7F5" font-family="DejaVu Sans Mono" font-size="42" font-weight="700" text-anchor="middle" letter-spacing="0" opacity="1">H</text><text x="106" y="1180" fill="#68706C" font-family="Lato" font-size="32" font-weight="500" text-anchor="start" letter-spacing="0" opacity="1">one constrained output</text><rect x="870" y="805" width="560" height="420" fill="none" stroke="#A83D34" stroke-width="3"/><text x="906" y="864" fill="#68706C" font-family="Lato" font-size="30" font-weight="800" text-anchor="start" letter-spacing="1.2" opacity="1">EPICURE</text><text x="906" y="944" fill="#161817" font-family="DejaVu Sans Mono" font-size="56" font-weight="700" text-anchor="start" letter-spacing="0" opacity="1">C(8,3) = 56</text><circle cx="930" cy="1012" r="6" fill="#56605B" stroke="none" stroke-width="1"/><circle cx="983" cy="1012" r="6" fill="#56605B" stroke="none" stroke-width="1"/><circle cx="1036" cy="1012" r="6" fill="#56605B" stroke="none" stroke-width="1"/><circle cx="1089" cy="1012" r="6" fill="#56605B" stroke="none" stroke-width="1"/><circle cx="1142" cy="1012" r="6" fill="#56605B" stroke="none" stroke-width="1"/><circle cx="1195" cy="1012" r="6" fill="#56605B" stroke="none" stroke-width="1"/><circle cx="1248" cy="1012" r="6" fill="#56605B" stroke="none" stroke-width="1"/><circle cx="1301" cy="1012" r="6" fill="#56605B" stroke="none" stroke-width="1"/><circle cx="930" cy="1036" r="6" fill="#56605B" stroke="none" stroke-width="1"/><circle cx="983" cy="1036" r="6" fill="#56605B" stroke="none" stroke-width="1"/><circle cx="1036" cy="1036" r="6" fill="#56605B" stroke="none" stroke-width="1"/><circle cx="1089" cy="1036" r="6" fill="#56605B" stroke="none" stroke-width="1"/><circle cx="1142" cy="1036" r="6" fill="#56605B" stroke="none" stroke-width="1"/><circle cx="1195" cy="1036" r="6" fill="#56605B" stroke="none" stroke-width="1"/><circle cx="1248" cy="1036" r="6" fill="#56605B" stroke="none" stroke-width="1"/><circle cx="1301" cy="1036" r="6" fill="#56605B" stroke="none" stroke-width="1"/><circle cx="930" cy="1060" r="6" fill="#56605B" stroke="none" stroke-width="1"/><circle cx="983" cy="1060" r="6" fill="#56605B" stroke="none" stroke-width="1"/><circle cx="1036" cy="1060" r="6" fill="#56605B" stroke="none" stroke-width="1"/><circle cx="1089" cy="1060" r="6" fill="#56605B" stroke="none" stroke-width="1"/><circle cx="1142" cy="1060" r="6" fill="#56605B" stroke="none" stroke-width="1"/><circle cx="1195" cy="1060" r="6" fill="#56605B" stroke="none" stroke-width="1"/><circle cx="1248" cy="1060" r="6" fill="#56605B" stroke="none" stroke-width="1"/><circle cx="1301" cy="1060" r="6" fill="#56605B" stroke="none" stroke-width="1"/><circle cx="930" cy="1084" r="6" fill="#56605B" stroke="none" stroke-width="1"/><circle cx="983" cy="1084" r="6" fill="#56605B" stroke="none" stroke-width="1"/><circle cx="1036" cy="1084" r="6" fill="#56605B" stroke="none" stroke-width="1"/><circle cx="1089" cy="1084" r="6" fill="#56605B" stroke="none" stroke-width="1"/><circle cx="1142" cy="1084" r="6" fill="#56605B" stroke="none" stroke-width="1"/><circle cx="1195" cy="1084" r="6" fill="#56605B" stroke="none" stroke-width="1"/><circle cx="1248" cy="1084" r="6" fill="#56605B" stroke="none" stroke-width="1"/><circle cx="1301" cy="1084" r="6" fill="#56605B" stroke="none" stroke-width="1"/><circle cx="930" cy="1108" r="6" fill="#56605B" stroke="none" stroke-width="1"/><circle cx="983" cy="1108" r="6" fill="#56605B" stroke="none" stroke-width="1"/><circle cx="1036" cy="1108" r="6" fill="#56605B" stroke="none" stroke-width="1"/><circle cx="1089" cy="1108" r="6" fill="#56605B" stroke="none" stroke-width="1"/><circle cx="1142" cy="1108" r="6" fill="#56605B" stroke="none" stroke-width="1"/><circle cx="1195" cy="1108" r="6" fill="#56605B" stroke="none" stroke-width="1"/><circle cx="1248" cy="1108" r="6" fill="#56605B" stroke="none" stroke-width="1"/><circle cx="1301" cy="1108" r="6" fill="#56605B" stroke="none" stroke-width="1"/><circle cx="930" cy="1132" r="6" fill="#56605B" stroke="none" stroke-width="1"/><circle cx="983" cy="1132" r="6" fill="#56605B" stroke="none" stroke-width="1"/><circle cx="1036" cy="1132" r="6" fill="#56605B" stroke="none" stroke-width="1"/><circle cx="1089" cy="1132" r="6" fill="#56605B" stroke="none" stroke-width="1"/><circle cx="1142" cy="1132" r="6" fill="#56605B" stroke="none" stroke-width="1"/><circle cx="1195" cy="1132" r="6" fill="#56605B" stroke="none" stroke-width="1"/><circle cx="1248" cy="1132" r="6" fill="#56605B" stroke="none" stroke-width="1"/><circle cx="1301" cy="1132" r="6" fill="#56605B" stroke="none" stroke-width="1"/><circle cx="930" cy="1156" r="6" fill="#56605B" stroke="none" stroke-width="1"/><circle cx="983" cy="1156" r="6" fill="#56605B" stroke="none" stroke-width="1"/><circle cx="1036" cy="1156" r="6" fill="#56605B" stroke="none" stroke-width="1"/><circle cx="1089" cy="1156" r="6" fill="#56605B" stroke="none" stroke-width="1"/><circle cx="1142" cy="1156" r="6" fill="#56605B" stroke="none" stroke-width="1"/><circle cx="1195" cy="1156" r="6" fill="#56605B" stroke="none" stroke-width="1"/><circle cx="1248" cy="1156" r="6" fill="#56605B" stroke="none" stroke-width="1"/><circle cx="1301" cy="1156" r="8" fill="#A83D34" stroke="none" stroke-width="1"/><text x="906" y="1190" fill="#68706C" font-family="Lato" font-size="32" font-weight="500" text-anchor="start" letter-spacing="0" opacity="1">fixed 0-100 score map</text><polyline points="350,1225 350,1352 750,1352 750,1410" fill="none" stroke="#56605B" stroke-width="3"/><polyline points="1150,1225 1150,1352 750,1352" fill="none" stroke="#56605B" stroke-width="3"/><polygon points="738,1398 762,1398 750,1410" fill="#56605B"/><rect x="264" y="1426" width="972" height="278" fill="none" stroke="#161817" stroke-width="3"/><text x="750" y="1490" fill="#68706C" font-family="Lato" font-size="30" font-weight="800" text-anchor="middle" letter-spacing="1.2" opacity="1">DIRECT LOOKUP</text><text x="750" y="1606" fill="#161817" font-family="DejaVu Sans Mono" font-size="66" font-weight="700" text-anchor="middle" letter-spacing="0" opacity="1">A + B + H</text><text x="750" y="1682" fill="#A83D34" font-family="DejaVu Sans Mono" font-size="76" font-weight="700" text-anchor="middle" letter-spacing="0" opacity="1">100.0</text><line x1="56" y1="1800" x2="1444" y2="1800" stroke="#DDE1DE" stroke-width="2" opacity="1"/><text x="56" y="1872" fill="#161817" font-family="Lato" font-size="34" font-weight="800" text-anchor="start" letter-spacing="0" opacity="1">Repeat across 534 tasks. Every model gets the same set.</text></svg>
